<svg xmlns="http://www.w3.org/2000/svg" viewBox="0 0 280 320" fill="none">
  <defs>
    <!-- Ball gradient: blue tones like original -->
    <radialGradient id="ballGrad" cx="38%" cy="32%" r="62%">
      <stop offset="0%"  stop-color="#60a5fa"/>
      <stop offset="45%" stop-color="#2563eb"/>
      <stop offset="100%" stop-color="#1e3a8a"/>
    </radialGradient>
    <!-- Ball shine -->
    <radialGradient id="ballShine" cx="30%" cy="25%" r="45%">
      <stop offset="0%"  stop-color="#bfdbfe" stop-opacity="0.5"/>
      <stop offset="100%" stop-color="#bfdbfe" stop-opacity="0"/>
    </radialGradient>
    <!-- Crown gradient: gold like original -->
    <linearGradient id="crownGrad" x1="0%" y1="0%" x2="0%" y2="100%">
      <stop offset="0%"  stop-color="#fef08a"/>
      <stop offset="40%" stop-color="#eab308"/>
      <stop offset="100%" stop-color="#a16207"/>
    </linearGradient>
    <!-- Orbit ring -->
    <linearGradient id="ringGrad" x1="0%" y1="0%" x2="100%" y2="100%">
      <stop offset="0%"  stop-color="#93c5fd"/>
      <stop offset="50%" stop-color="#3b82f6"/>
      <stop offset="100%" stop-color="#93c5fd"/>
    </linearGradient>
    <!-- Crown glow -->
    <filter id="crownGlow" x="-30%" y="-30%" width="160%" height="160%">
      <feGaussianBlur in="SourceGraphic" stdDeviation="3" result="blur"/>
      <feColorMatrix in="blur" type="matrix"
        values="1 0.8 0 0 0  0.8 0.6 0 0 0  0 0 0 0 0  0 0 0 0.6 0" result="coloredBlur"/>
      <feMerge>
        <feMergeNode in="coloredBlur"/>
        <feMergeNode in="SourceGraphic"/>
      </feMerge>
    </filter>
    <!-- Ball glow -->
    <filter id="ballGlow" x="-10%" y="-10%" width="120%" height="120%">
      <feGaussianBlur in="SourceGraphic" stdDeviation="2.5" result="blur"/>
      <feMerge>
        <feMergeNode in="blur"/>
        <feMergeNode in="SourceGraphic"/>
      </feMerge>
    </filter>
    <!-- Text glow -->
    <filter id="textGlow" x="-10%" y="-20%" width="120%" height="140%">
      <feGaussianBlur in="SourceGraphic" stdDeviation="2" result="blur"/>
      <feMerge>
        <feMergeNode in="blur"/>
        <feMergeNode in="SourceGraphic"/>
      </feMerge>
    </filter>
  </defs>

  <!-- ── Orbit ring ──────────────────────────────────────────────── -->
  <circle cx="140" cy="152" r="92" stroke="url(#ringGrad)" stroke-width="1.5" stroke-dasharray="5 4" opacity="0.55"/>

  <!-- Orbit dots at compass points -->
  <circle cx="140" cy="60"  r="4.5" fill="#93c5fd" opacity="0.9"/>
  <circle cx="232" cy="152" r="4.5" fill="#93c5fd" opacity="0.9"/>
  <circle cx="140" cy="244" r="4.5" fill="#93c5fd" opacity="0.9"/>
  <circle cx="48"  cy="152" r="4.5" fill="#93c5fd" opacity="0.9"/>

  <!-- Inner thin ring -->
  <circle cx="140" cy="152" r="76" stroke="#60a5fa" stroke-width="0.75" opacity="0.25"/>

  <!-- ── Football ────────────────────────────────────────────────── -->
  <circle cx="140" cy="152" r="63" fill="url(#ballGrad)" filter="url(#ballGlow)"/>
  <circle cx="140" cy="152" r="63" fill="url(#ballShine)"/>

  <!-- Classic pentagon patches -->
  <!-- Center -->
  <polygon points="140,126 156,137 150,156 130,156 124,137"
    fill="#1d4ed8" stroke="#93c5fd" stroke-width="1.2"/>
  <!-- Top -->
  <polygon points="140,90 152,99 148,112 132,112 128,99"
    fill="#1e40af" stroke="#93c5fd" stroke-width="1.2"/>
  <!-- Top-right -->
  <polygon points="168,107 180,120 174,134 160,131 156,117"
    fill="#1d4ed8" stroke="#93c5fd" stroke-width="1.2"/>
  <!-- Bottom-right -->
  <polygon points="170,167 178,182 166,194 152,187 152,172"
    fill="#1e40af" stroke="#93c5fd" stroke-width="1.2"/>
  <!-- Bottom-left -->
  <polygon points="110,172 128,172 128,187 114,194 102,182"
    fill="#1d4ed8" stroke="#93c5fd" stroke-width="1.2"/>
  <!-- Top-left -->
  <polygon points="112,107 124,117 120,131 106,134 100,120"
    fill="#1e40af" stroke="#93c5fd" stroke-width="1.2"/>

  <!-- Ball rim -->
  <circle cx="140" cy="152" r="63" stroke="#93c5fd" stroke-width="1.5" fill="none" opacity="0.5"/>

  <!-- ── Crown ──────────────────────────────────────────────────── -->
  <rect x="108" y="86" width="64" height="15" rx="3" fill="url(#crownGrad)" filter="url(#crownGlow)"/>
  <polygon points="112,86 118,58 126,78 140,50 154,78 162,58 168,86"
    fill="url(#crownGrad)" filter="url(#crownGlow)"/>
  <!-- Crown shine -->
  <polygon points="116,86 121,64 128,80 140,55 152,80 159,64 164,86"
    fill="#fef9c3" opacity="0.25"/>
  <!-- Gem dots -->
  <circle cx="118" cy="60" r="3.5" fill="#fef08a"/>
  <circle cx="140" cy="51" r="4"   fill="#fef08a"/>
  <circle cx="162" cy="60" r="3.5" fill="#fef08a"/>

  <!-- ── Text: GUESS (white — visible on dark bg) ──────────────── -->
  <text x="140" y="248"
    font-family="'Arial Black', 'Segoe UI', sans-serif"
    font-weight="900"
    font-size="38"
    letter-spacing="4"
    text-anchor="middle"
    fill="#ffffff"
    filter="url(#textGlow)"
  >GUESS</text>

  <!-- ── Text: & WIN (gold) ────────────────────────────────────── -->
  <text x="140" y="288"
    font-family="'Arial Black', 'Segoe UI', sans-serif"
    font-weight="900"
    font-size="34"
    letter-spacing="3"
    text-anchor="middle"
    fill="#eab308"
    filter="url(#textGlow)"
  >&amp; WIN</text>

  <!-- Underline accent -->
  <line x1="78" y1="298" x2="202" y2="298" stroke="url(#ringGrad)" stroke-width="2" stroke-linecap="round"/>
</svg>
